<svg width="18" height="17" viewBox="0 0 18 17" fill="none" xmlns="http://www.w3.org/2000/svg">
<path d="M8.31141 0.308206C8.48221 -0.10244 9.06393 -0.10244 9.23473 0.308206L11.3008 5.27569C11.3728 5.4488 11.5356 5.56709 11.7225 5.58207L17.0853 6.01201C17.5287 6.04755 17.7084 6.6008 17.3707 6.89013L13.2848 10.3901C13.1424 10.5121 13.0802 10.7035 13.1237 10.8859L14.372 16.1191C14.4752 16.5517 14.0046 16.8936 13.625 16.6618L9.0337 13.8574C8.87369 13.7597 8.67245 13.7597 8.51244 13.8574L3.92113 16.6618C3.54158 16.8936 3.07095 16.5517 3.17415 16.1191L4.42246 10.8859C4.46596 10.7035 4.40377 10.5121 4.26138 10.3901L0.175484 6.89013C-0.162284 6.6008 0.0174788 6.04755 0.460806 6.01201L5.82362 5.58207C6.01051 5.56709 6.17332 5.4488 6.24532 5.27569L8.31141 0.308206Z" fill="#F5F5F5"/>
</svg>
