<svg width="16" height="16" viewBox="0 0 16 16" fill="none" xmlns="http://www.w3.org/2000/svg">
<g clip-path="url(#clip0_77_479)">
<path d="M12.3554 2.83406C12.5074 3.20158 12.7991 3.4937 13.1664 3.64621L14.4542 4.17967C14.8218 4.33192 15.1138 4.62393 15.266 4.99147C15.4183 5.35901 15.4183 5.77198 15.266 6.13952L14.733 7.42648C14.5807 7.79419 14.5804 8.20757 14.7334 8.5751L15.2656 9.86168C15.3411 10.0437 15.3799 10.2388 15.38 10.4359C15.38 10.633 15.3412 10.8281 15.2658 11.0102C15.1904 11.1922 15.0798 11.3577 14.9404 11.497C14.8011 11.6363 14.6356 11.7468 14.4535 11.8222L13.1666 12.3552C12.7991 12.5072 12.5069 12.7989 12.3544 13.1662L11.821 14.4541C11.6687 14.8216 11.3767 15.1136 11.0092 15.2658C10.6416 15.4181 10.2287 15.4181 9.86112 15.2658L8.57415 14.7328C8.2066 14.5809 7.79378 14.5812 7.42646 14.7336L6.13857 15.2663C5.77123 15.4182 5.35863 15.4181 4.99138 15.266C4.62414 15.1139 4.33229 14.8222 4.17995 14.455L3.64633 13.1668C3.49437 12.7993 3.20268 12.5071 2.8354 12.3546L1.54751 11.8212C1.18013 11.669 0.888202 11.3772 0.735904 11.0098C0.583607 10.6425 0.5834 10.2297 0.73533 9.86223L1.26841 8.57527C1.42027 8.20772 1.41996 7.7949 1.26755 7.42758L0.735233 6.13876C0.659761 5.95672 0.6209 5.7616 0.620868 5.56453C0.620836 5.36747 0.659636 5.17233 0.735049 4.99027C0.810462 4.80821 0.92101 4.64279 1.06038 4.50346C1.19975 4.36414 1.3652 4.25365 1.54729 4.17829L2.83425 3.64521C3.20144 3.49338 3.4934 3.20207 3.64602 2.83521L4.17948 1.54732C4.33172 1.17978 4.62373 0.887764 4.99128 0.735523C5.35882 0.583282 5.77178 0.583282 6.13933 0.735523L7.42629 1.2686C7.79384 1.42047 8.20666 1.42016 8.57398 1.26774L9.86241 0.73635C10.2299 0.584195 10.6428 0.584226 11.0103 0.736437C11.3777 0.888648 11.6697 1.18058 11.822 1.54802L12.3556 2.83629L12.3554 2.83406Z" fill="#2E90FA"/>
<path fill-rule="evenodd" clip-rule="evenodd" d="M11.1333 5.9034C11.2401 5.73552 11.276 5.53205 11.2328 5.33777C11.1897 5.14348 11.0711 4.97428 10.9033 4.8674C10.7354 4.76052 10.5319 4.72471 10.3376 4.76784C10.1433 4.81097 9.97414 4.92952 9.86726 5.0974L6.93026 9.7124L5.58626 8.0324C5.46201 7.87698 5.2811 7.77729 5.08335 7.75526C4.88559 7.73322 4.68718 7.79065 4.53176 7.9149C4.37634 8.03916 4.27665 8.22006 4.25462 8.41782C4.23258 8.61557 4.29001 8.81398 4.41426 8.9694L6.41426 11.4694C6.4888 11.5627 6.58453 11.6368 6.6935 11.6857C6.80246 11.7345 6.92152 11.7566 7.04075 11.7501C7.15998 11.7437 7.27595 11.7089 7.37901 11.6485C7.48207 11.5882 7.56923 11.5042 7.63326 11.4034L11.1333 5.9034Z" fill="white"/>
</g>
<defs>
<clipPath id="clip0_77_479">
<rect width="16" height="16" fill="white"/>
</clipPath>
</defs>
</svg>
